<svg xmlns="http://www.w3.org/2000/svg" xmlns:xlink="http://www.w3.org/1999/xlink" width="109" zoomAndPan="magnify" viewBox="0 0 81.75 91.5" height="122" preserveAspectRatio="xMidYMid meet" version="1.0"><path fill="#000000" d="M 47.410156 4.667969 C 46.351562 4.78125 45.457031 4.929688 43.625 5.289062 C 41.785156 5.648438 41.300781 5.703125 39.210938 5.777344 C 36.40625 5.878906 35.304688 6.015625 32.753906 6.574219 C 31.1875 6.917969 29.566406 7 27.269531 6.855469 C 25.125 6.71875 24.046875 6.492188 22.324219 5.820312 C 21.101562 5.339844 19.574219 5.015625 18.09375 4.914062 C 17.402344 4.871094 15.558594 5.097656 14.75 5.332031 C 14.582031 5.378906 14.039062 5.421875 13.546875 5.421875 C 12.832031 5.417969 12.464844 5.367188 11.675781 5.148438 C 10.164062 4.734375 10.058594 4.714844 8.824219 4.65625 C 7.402344 4.585938 6.6875 4.695312 6.394531 5.023438 L 6.195312 5.253906 L 6.195312 75.507812 L 6.53125 76.042969 C 7 76.792969 8.769531 79.058594 9.660156 80.046875 C 10.320312 80.777344 10.914062 81.324219 12.195312 82.359375 C 12.808594 82.859375 13.957031 83.589844 14.929688 84.097656 C 15.777344 84.539062 16.171875 84.71875 17.425781 85.230469 C 18.222656 85.554688 20.164062 86.117188 21.167969 86.316406 C 22.097656 86.496094 22.445312 86.515625 24.910156 86.511719 C 27.472656 86.507812 27.703125 86.496094 28.921875 86.269531 C 31.558594 85.78125 33.742188 85.042969 36.226562 83.800781 C 38.707031 82.5625 41.015625 81.050781 43.132812 79.277344 C 47.167969 75.898438 51.445312 70.386719 54.078125 65.183594 C 54.890625 63.574219 54.9375 63.464844 55.332031 62.34375 C 55.503906 61.851562 55.890625 60.8125 56.195312 60.03125 C 56.496094 59.25 56.84375 58.351562 56.964844 58.03125 C 57.417969 56.832031 58.355469 55.078125 59.027344 54.167969 C 59.207031 53.921875 59.46875 53.554688 59.605469 53.351562 C 60.269531 52.375 61.933594 50.828125 62.636719 50.53125 C 63.035156 50.367188 63.933594 50.34375 64.386719 50.488281 C 65.214844 50.746094 68.542969 50.46875 69.425781 50.066406 C 70.332031 49.652344 70.863281 48.976562 71.117188 47.910156 C 71.253906 47.34375 71.265625 47.054688 71.203125 45.867188 C 71.097656 43.839844 71.113281 43.511719 71.382812 42.480469 C 71.515625 41.964844 71.660156 41.347656 71.703125 41.101562 C 71.746094 40.859375 71.90625 40.339844 72.058594 39.945312 C 72.210938 39.554688 72.386719 39.070312 72.453125 38.863281 C 72.636719 38.296875 72.824219 38.0625 73.675781 37.363281 C 74.648438 36.558594 74.875 36.292969 75.035156 35.757812 C 75.210938 35.179688 75.066406 34.636719 74.410156 33.414062 C 73.835938 32.347656 73.765625 32.199219 73.289062 30.925781 C 72.796875 29.617188 72.558594 28.878906 72.3125 27.90625 C 72.109375 27.121094 72.097656 26.933594 72.128906 25.238281 C 72.191406 21.835938 72.1875 21.554688 72.0625 21.050781 C 71.992188 20.773438 71.964844 20.4375 72 20.304688 C 72.035156 20.171875 72.308594 19.828125 72.613281 19.539062 L 73.164062 19.019531 L 73.195312 17.726562 C 73.226562 16.207031 73.210938 16.164062 72.441406 15.78125 C 72.152344 15.636719 71.867188 15.457031 71.804688 15.378906 C 71.65625 15.195312 71.339844 14.523438 71.339844 14.390625 C 71.339844 14.046875 70.03125 12.414062 68.5625 10.921875 C 67.957031 10.304688 67.339844 9.71875 67.1875 9.613281 C 66.433594 9.105469 65.179688 8.582031 63.675781 8.148438 C 61.742188 7.59375 61.5 7.5 60.421875 6.878906 C 59.234375 6.195312 58.75 6.0625 57.035156 5.957031 C 55.941406 5.890625 55.835938 5.867188 55.117188 5.53125 C 54.703125 5.335938 54.054688 5.089844 53.683594 4.988281 C 52.378906 4.621094 49.296875 4.464844 47.410156 4.667969 M 47.632812 5.804688 C 47.609375 5.828125 47.078125 5.894531 46.449219 5.949219 C 45.144531 6.066406 45.050781 6.089844 45.050781 6.3125 C 45.050781 6.59375 45.582031 6.832031 46.4375 6.929688 C 47.464844 7.046875 50.765625 7.046875 51.386719 6.929688 C 51.980469 6.820312 52.625 6.492188 52.625 6.300781 C 52.625 6.21875 52.464844 6.089844 52.246094 5.996094 C 51.921875 5.851562 51.570312 5.824219 49.769531 5.796875 C 48.617188 5.78125 47.65625 5.785156 47.632812 5.804688 M 8.78125 6.070312 C 8.335938 6.1875 8.203125 6.4375 8.476562 6.636719 C 8.679688 6.785156 10.136719 6.796875 10.414062 6.652344 C 10.613281 6.546875 10.738281 6.40625 10.738281 6.285156 C 10.742188 6.066406 9.371094 5.914062 8.78125 6.070312 M 15.691406 7.066406 C 15.15625 7.183594 14.613281 7.316406 14.488281 7.363281 C 13.867188 7.59375 12.949219 7.824219 12.363281 7.898438 C 11.671875 7.988281 11.160156 8.222656 11.113281 8.46875 C 11.085938 8.605469 11.203125 8.621094 12.265625 8.621094 C 12.917969 8.621094 13.8125 8.5625 14.253906 8.488281 C 17.207031 8.007812 18.851562 7.820312 20.1875 7.820312 C 21.320312 7.816406 21.71875 7.507812 21.136719 7.074219 C 20.902344 6.898438 20.769531 6.886719 18.777344 6.871094 C 16.847656 6.855469 16.582031 6.875 15.691406 7.066406 M 37.117188 7.289062 C 36.898438 7.324219 36.398438 7.398438 36.003906 7.457031 C 35.101562 7.589844 33.515625 7.917969 32.261719 8.226562 C 31.964844 8.300781 31.605469 8.453125 31.460938 8.570312 C 31.226562 8.753906 31.207031 8.808594 31.285156 9.03125 C 31.347656 9.214844 31.453125 9.296875 31.683594 9.351562 C 32.027344 9.429688 32.835938 9.363281 33.191406 9.226562 C 33.316406 9.179688 33.660156 9.089844 33.953125 9.023438 C 34.546875 8.894531 35.390625 8.6875 36.136719 8.484375 C 36.40625 8.414062 37.171875 8.3125 37.832031 8.265625 C 39.425781 8.148438 40.207031 7.980469 40.492188 7.695312 C 40.679688 7.511719 40.695312 7.453125 40.597656 7.335938 C 40.5 7.222656 40.242188 7.199219 39 7.210938 C 38.1875 7.21875 37.339844 7.25 37.117188 7.289062 M 43.445312 7.785156 C 43.324219 7.808594 43.09375 7.84375 42.933594 7.871094 C 42.773438 7.894531 42.644531 7.972656 42.644531 8.035156 C 42.644531 8.371094 44.039062 8.996094 44.789062 8.996094 C 45.320312 8.996094 45.40625 8.941406 45.40625 8.605469 C 45.40625 8.242188 44.960938 7.820312 44.574219 7.820312 C 44.417969 7.820312 44.152344 7.804688 43.980469 7.785156 C 43.808594 7.765625 43.566406 7.765625 43.445312 7.785156 M 54.304688 7.910156 C 54.078125 7.949219 53.820312 8.019531 53.726562 8.066406 C 53.636719 8.113281 53.359375 8.179688 53.113281 8.214844 C 52.871094 8.25 52.589844 8.332031 52.488281 8.394531 C 52.390625 8.457031 52.140625 8.539062 51.933594 8.574219 C 51.6875 8.613281 51.496094 8.714844 51.378906 8.863281 C 51.167969 9.128906 51.160156 9.226562 51.332031 9.453125 C 51.605469 9.816406 52.460938 9.726562 54.675781 9.089844 L 55.84375 8.753906 C 56.4375 8.582031 56.992188 8.28125 56.992188 8.128906 C 56.992188 8.054688 56.886719 7.953125 56.761719 7.90625 C 56.496094 7.808594 54.910156 7.808594 54.304688 7.910156 M 57.90625 7.914062 C 57.65625 8.011719 57.644531 8.226562 57.886719 8.355469 C 58.308594 8.582031 58.738281 8.207031 58.363281 7.9375 C 58.183594 7.804688 58.175781 7.804688 57.90625 7.914062 M 7.671875 8.648438 C 7.441406 8.820312 7.5625 9.152344 7.855469 9.152344 C 8.171875 9.152344 8.421875 9 8.421875 8.804688 C 8.421875 8.53125 7.964844 8.4375 7.671875 8.648438 M 63.964844 9.652344 C 63.8125 9.71875 63.824219 10.050781 63.988281 10.28125 C 64.0625 10.386719 64.53125 10.789062 65.035156 11.175781 C 66.023438 11.9375 67.28125 13.214844 67.941406 14.121094 C 68.503906 14.898438 68.878906 15.316406 69.136719 15.453125 C 69.328125 15.554688 69.394531 15.542969 69.722656 15.335938 C 70.050781 15.132812 70.089844 15.066406 70.089844 14.761719 C 70.089844 14.554688 70.019531 14.332031 69.914062 14.195312 C 69.816406 14.070312 69.734375 13.941406 69.734375 13.90625 C 69.734375 13.871094 69.425781 13.460938 69.042969 12.992188 C 67.160156 10.667969 65.90625 9.71875 64.609375 9.636719 C 64.316406 9.617188 64.027344 9.625 63.964844 9.652344 M 18.644531 9.816406 C 18.484375 9.972656 18.441406 10.265625 18.566406 10.34375 C 18.609375 10.367188 19.058594 10.46875 19.570312 10.570312 C 20.027344 10.65625 20.484375 10.746094 20.945312 10.839844 C 21.1875 10.886719 21.929688 11.089844 22.59375 11.292969 C 24.398438 11.84375 24.953125 11.980469 25.839844 12.082031 C 26.6875 12.183594 28.023438 12.449219 28.792969 12.667969 C 29.574219 12.890625 30.441406 12.832031 32.003906 12.453125 C 32.785156 12.265625 33.820312 12.019531 34.3125 11.910156 C 34.800781 11.800781 35.421875 11.644531 35.691406 11.566406 C 36.109375 11.441406 36.710938 11.417969 39.703125 11.421875 L 43.222656 11.421875 L 43.890625 11.660156 C 44.257812 11.789062 44.839844 12.003906 45.183594 12.132812 C 46.652344 12.679688 47.191406 12.773438 49.28125 12.835938 C 50.394531 12.867188 51.515625 12.855469 51.867188 12.808594 C 52.210938 12.761719 53.074219 12.519531 53.78125 12.269531 C 56.085938 11.46875 56.28125 11.433594 58.773438 11.433594 C 60.820312 11.429688 60.984375 11.441406 61.378906 11.621094 C 61.980469 11.894531 62.785156 12.457031 63.417969 13.046875 C 63.71875 13.324219 64.136719 13.710938 64.347656 13.90625 C 64.5625 14.105469 64.949219 14.542969 65.210938 14.886719 C 65.90625 15.789062 66.441406 15.996094 66.972656 15.570312 C 67.273438 15.324219 67.324219 14.601562 67.070312 14.1875 C 66.792969 13.742188 65.910156 12.953125 65.304688 12.613281 C 64.8125 12.332031 64.4375 12.085938 63.449219 11.382812 C 62.21875 10.507812 61.792969 10.347656 60.421875 10.222656 C 58.835938 10.078125 56 10.226562 55.40625 10.488281 C 55.1875 10.585938 54.941406 10.664062 54.863281 10.664062 C 54.785156 10.664062 54.476562 10.742188 54.183594 10.839844 C 53.003906 11.222656 50.703125 11.398438 49.460938 11.199219 C 49.167969 11.152344 48.53125 11.070312 48.050781 11.023438 C 46.871094 10.898438 45.878906 10.714844 44.335938 10.324219 L 43.042969 9.996094 L 40.28125 10.007812 C 37.652344 10.015625 37.464844 10.027344 36.375 10.25 C 35.742188 10.382812 35.1875 10.515625 35.136719 10.546875 C 34.886719 10.695312 31.003906 11.199219 29.945312 11.214844 C 29.195312 11.226562 28.007812 11.015625 27.578125 10.792969 C 27.4375 10.722656 27.261719 10.664062 27.179688 10.664062 C 27.101562 10.664062 26.847656 10.589844 26.621094 10.5 C 25.117188 9.90625 24.222656 9.773438 21.207031 9.714844 C 19.015625 9.667969 18.78125 9.679688 18.644531 9.816406 M 10.382812 10.679688 C 9.445312 10.78125 8.070312 11.257812 7.777344 11.578125 C 7.171875 12.246094 8.257812 12.363281 9.785156 11.804688 C 10.1875 11.652344 10.65625 11.492188 10.824219 11.445312 C 11.199219 11.339844 11.738281 10.941406 11.695312 10.808594 C 11.648438 10.664062 11.054688 10.609375 10.382812 10.679688 M 15.328125 12.140625 C 11.566406 12.554688 7.863281 13.539062 7.613281 14.195312 C 7.484375 14.53125 7.519531 14.800781 7.710938 14.972656 C 7.855469 15.105469 7.980469 15.125 8.445312 15.078125 C 9.371094 14.992188 10.304688 14.851562 10.917969 14.714844 C 12.441406 14.371094 13.015625 14.289062 14.183594 14.246094 C 15.140625 14.207031 15.601562 14.230469 16.101562 14.335938 C 16.460938 14.414062 16.996094 14.503906 17.289062 14.535156 C 17.585938 14.5625 18.1875 14.652344 18.628906 14.726562 C 19.242188 14.835938 20.140625 14.871094 22.503906 14.875 L 25.578125 14.886719 L 26.109375 14.664062 C 27.132812 14.238281 26.960938 13.652344 25.722656 13.332031 C 25.367188 13.242188 24.871094 13.144531 24.617188 13.113281 C 24.0625 13.046875 23.125 12.839844 22.324219 12.609375 C 21.019531 12.234375 19.628906 12.085938 17.558594 12.101562 C 16.480469 12.105469 15.476562 12.125 15.328125 12.140625 M 57.972656 12.886719 C 56.46875 12.96875 55.964844 13.050781 54.476562 13.453125 C 52.617188 13.957031 50.988281 14.296875 49.746094 14.445312 C 49.476562 14.480469 49.296875 14.550781 49.265625 14.636719 C 49.179688 14.859375 49.460938 15.222656 49.832031 15.363281 C 50.316406 15.546875 52.445312 15.507812 53.871094 15.285156 C 58.144531 14.621094 58.183594 14.617188 58.933594 14.785156 C 59.554688 14.925781 59.855469 15.027344 60.808594 15.429688 C 60.972656 15.5 61.402344 15.597656 61.761719 15.648438 C 62.558594 15.757812 62.976562 15.667969 63.386719 15.292969 C 63.628906 15.070312 63.675781 14.964844 63.675781 14.632812 C 63.675781 14.28125 63.628906 14.1875 63.285156 13.847656 C 62.488281 13.058594 60.730469 12.738281 57.972656 12.886719 M 40.703125 13.140625 C 39.476562 13.199219 39.351562 13.242188 39.347656 13.613281 C 39.34375 13.84375 39.761719 14.117188 40.222656 14.179688 C 40.449219 14.210938 40.800781 14.289062 40.996094 14.351562 C 41.191406 14.414062 41.769531 14.535156 42.28125 14.621094 C 43.074219 14.75 43.277344 14.757812 43.6875 14.660156 C 44.1875 14.539062 44.605469 14.21875 44.605469 13.949219 C 44.605469 13.28125 43.339844 13.019531 40.703125 13.140625 M 33.199219 14.925781 C 31.21875 15.171875 30.351562 15.308594 30.054688 15.421875 C 29.871094 15.492188 29.648438 15.550781 29.5625 15.550781 C 29.335938 15.550781 27.753906 16.050781 26.292969 16.589844 C 25.707031 16.804688 24.039062 17.632812 22.992188 18.222656 C 20.609375 19.570312 18.527344 21.199219 16.082031 23.636719 C 14.253906 25.453125 13.246094 26.617188 11.757812 28.617188 C 10.960938 29.683594 10.648438 30.140625 9.742188 31.570312 C 8.695312 33.226562 7.585938 35.289062 7.464844 35.816406 C 7.40625 36.078125 7.363281 41.355469 7.339844 51.234375 C 7.296875 71.8125 7.308594 74.683594 7.445312 75.03125 C 7.613281 75.460938 7.925781 75.90625 9.015625 77.273438 C 10.683594 79.363281 12.109375 80.726562 13.859375 81.90625 C 16.597656 83.746094 19.414062 84.804688 22.949219 85.316406 C 24.3125 85.515625 25.417969 85.535156 26.832031 85.394531 C 30.464844 85.03125 33.453125 84.070312 36.851562 82.175781 C 37.367188 81.890625 37.925781 81.566406 38.097656 81.457031 L 39.300781 80.6875 C 42.628906 78.570312 46.714844 74.707031 48.839844 71.671875 C 50.972656 68.625 51.378906 67.957031 52.570312 65.542969 C 53.210938 64.25 53.984375 62.488281 54.320312 61.554688 C 54.414062 61.304688 54.589844 60.816406 54.71875 60.476562 C 54.847656 60.132812 55.074219 59.472656 55.222656 59.007812 C 55.394531 58.476562 55.570312 57.941406 55.746094 57.410156 C 56.417969 55.402344 57.058594 52.6875 57.488281 50.035156 C 57.941406 47.257812 57.941406 41.28125 57.484375 38.148438 C 57.132812 35.722656 56.128906 31.910156 55.34375 30.039062 C 53.898438 26.582031 52.964844 24.863281 51.359375 22.691406 C 49.585938 20.296875 46.753906 18.03125 43.777344 16.632812 C 43.347656 16.429688 42.957031 16.261719 42.90625 16.261719 C 42.855469 16.261719 42.6875 16.199219 42.53125 16.117188 C 42.253906 15.972656 42.003906 15.902344 40.550781 15.539062 C 39.554688 15.292969 39.1875 15.226562 37.964844 15.054688 C 36.765625 14.890625 34.078125 14.816406 33.199219 14.925781 M 14.484375 15.980469 C 14.332031 16.027344 14.25 16.121094 14.234375 16.285156 C 14.1875 16.664062 14.292969 16.710938 16.445312 17.246094 C 16.855469 17.347656 17.261719 17.449219 17.671875 17.554688 C 17.980469 17.632812 18.730469 17.71875 19.335938 17.75 C 20.414062 17.800781 20.445312 17.796875 20.847656 17.5625 C 21.148438 17.386719 21.257812 17.265625 21.257812 17.113281 C 21.257812 16.8125 21.066406 16.699219 20.425781 16.621094 C 20.113281 16.582031 19.78125 16.507812 19.683594 16.457031 C 19.589844 16.410156 19.203125 16.324219 18.820312 16.269531 C 18.4375 16.21875 18.039062 16.128906 17.933594 16.070312 C 17.707031 15.953125 14.832031 15.875 14.484375 15.980469 M 46.988281 15.96875 C 46.746094 16.03125 46.691406 16.421875 46.875 16.761719 C 47.222656 17.40625 48.339844 17.378906 48.730469 16.71875 C 48.886719 16.449219 48.886719 16.449219 48.660156 16.300781 C 48.167969 15.976562 47.476562 15.839844 46.988281 15.96875 M 12.121094 18.277344 C 11.40625 18.367188 11.1875 18.519531 11.1875 18.929688 C 11.1875 19.382812 11.460938 19.5 12.976562 19.679688 C 13.726562 19.769531 14.976562 19.847656 15.757812 19.851562 C 17.152344 19.863281 17.171875 19.859375 17.347656 19.648438 C 17.570312 19.371094 17.53125 19.035156 17.246094 18.828125 C 16.683594 18.414062 13.644531 18.089844 12.121094 18.277344 M 55.195312 19.238281 C 55.175781 19.261719 54.617188 19.339844 53.957031 19.417969 C 51.699219 19.675781 51.273438 19.8125 51.589844 20.164062 C 51.839844 20.4375 52.136719 20.511719 53.558594 20.65625 C 55.539062 20.859375 56.410156 20.863281 56.945312 20.667969 C 57.394531 20.503906 57.792969 20.171875 57.792969 19.960938 C 57.792969 19.738281 57.347656 19.4375 56.839844 19.320312 C 56.34375 19.203125 55.285156 19.152344 55.195312 19.238281 M 61.804688 19.816406 C 60.953125 19.949219 60.007812 20.175781 59.746094 20.308594 C 59.609375 20.382812 59.449219 20.441406 59.394531 20.441406 C 59.339844 20.441406 58.929688 20.628906 58.476562 20.855469 C 56.617188 21.800781 56.496094 21.847656 55.4375 22.066406 C 54.429688 22.269531 54.363281 22.296875 54.167969 22.578125 C 53.785156 23.136719 53.953125 24.851562 54.449219 25.417969 C 54.660156 25.660156 55.71875 27.761719 56.039062 28.574219 C 56.214844 29.011719 56.457031 29.601562 56.582031 29.878906 C 56.957031 30.726562 57.820312 33.804688 58.230469 35.769531 C 59.109375 39.976562 59.257812 44.546875 58.695312 50.0625 C 58.628906 50.71875 58.742188 51.148438 59.003906 51.246094 C 59.242188 51.339844 59.878906 50.96875 60.539062 50.351562 C 61.210938 49.714844 62 49.203125 62.558594 49.03125 C 62.808594 48.957031 63.753906 48.921875 65.679688 48.921875 L 68.441406 48.921875 L 68.933594 48.691406 C 69.203125 48.566406 69.484375 48.390625 69.554688 48.300781 C 69.75 48.066406 69.855469 42.875 69.679688 42.347656 C 69.46875 41.722656 69.515625 41.554688 70.058594 40.949219 C 70.808594 40.113281 70.988281 39.785156 71.085938 39.066406 C 71.136719 38.71875 71.253906 38.257812 71.351562 38.035156 C 71.542969 37.601562 72.125 37.003906 72.707031 36.644531 C 73.933594 35.886719 74.023438 35.082031 73.101562 33.15625 C 72.855469 32.636719 72.519531 31.855469 72.359375 31.414062 C 72.199219 30.976562 71.988281 30.414062 71.890625 30.171875 C 70.671875 27.140625 70.6875 27.210938 70.683594 25.015625 C 70.683594 23.992188 70.734375 22.820312 70.792969 22.417969 C 70.933594 21.460938 70.851562 20.6875 70.566406 20.351562 C 70.222656 19.941406 69.691406 19.816406 68.296875 19.816406 C 67.492188 19.816406 66.894531 19.863281 66.558594 19.953125 C 65.910156 20.121094 65.453125 20.117188 64.832031 19.949219 C 64.242188 19.785156 62.484375 19.710938 61.804688 19.816406 M 9.214844 21.257812 C 8.984375 21.445312 8.78125 21.796875 8.78125 22.007812 C 8.78125 22.117188 8.890625 22.292969 9.023438 22.398438 C 9.261719 22.585938 9.324219 22.589844 10.917969 22.546875 C 11.824219 22.523438 13.007812 22.433594 13.546875 22.351562 C 14.882812 22.144531 15.128906 21.914062 14.511719 21.445312 L 14.1875 21.195312 L 11.773438 21.167969 C 9.882812 21.148438 9.328125 21.164062 9.214844 21.257812 M 8.035156 23.914062 C 7.660156 23.976562 7.582031 24.058594 7.429688 24.542969 C 7.320312 24.898438 7.363281 25.1875 7.566406 25.460938 C 7.691406 25.628906 7.800781 25.640625 9.929688 25.640625 L 12.164062 25.640625 L 12.390625 25.410156 C 12.671875 25.128906 12.765625 24.640625 12.582031 24.394531 C 12.464844 24.238281 12.304688 24.210938 11.214844 24.15625 C 10.539062 24.121094 9.621094 24.039062 9.179688 23.976562 C 8.738281 23.910156 8.222656 23.878906 8.035156 23.914062 M 8.117188 27.5 C 7.609375 27.636719 7.441406 27.820312 7.441406 28.238281 C 7.441406 28.953125 8.082031 29.433594 9.066406 29.449219 C 9.542969 29.460938 9.597656 29.4375 9.945312 29.105469 C 10.148438 28.910156 10.375 28.617188 10.445312 28.453125 C 10.554688 28.191406 10.554688 28.128906 10.4375 27.949219 C 10.359375 27.835938 10.230469 27.71875 10.140625 27.691406 C 9.9375 27.632812 8.660156 27.371094 8.601562 27.378906 C 8.578125 27.382812 8.359375 27.4375 8.117188 27.5 M 44.496094 28.308594 C 43.875 28.714844 43.222656 29.035156 42.714844 29.183594 C 42.113281 29.355469 40.085938 29.640625 38.1875 29.8125 C 35.140625 30.09375 33.960938 30.292969 32.128906 30.832031 C 31.277344 31.082031 30.917969 31.226562 30.125 31.640625 C 27.996094 32.753906 26.675781 34.039062 25.804688 35.847656 C 24.765625 37.996094 24.726562 40.035156 25.699219 41.054688 C 26.316406 41.703125 27.339844 41.726562 28.074219 41.109375 L 28.429688 40.808594 L 28.425781 39.976562 C 28.421875 39.367188 28.378906 39.070312 28.265625 38.859375 C 28.019531 38.390625 27.765625 37.488281 27.761719 37.074219 C 27.761719 36.601562 27.96875 35.859375 28.273438 35.246094 C 28.558594 34.675781 29.515625 33.742188 30.261719 33.304688 C 31.410156 32.632812 33.628906 31.992188 35.449219 31.8125 C 35.949219 31.761719 36.421875 31.703125 36.496094 31.679688 C 36.566406 31.660156 37.289062 31.578125 38.097656 31.503906 C 38.90625 31.425781 39.71875 31.339844 39.902344 31.3125 C 40.167969 31.273438 40.246094 31.292969 40.296875 31.417969 C 40.371094 31.613281 40.25 31.8125 39.570312 32.59375 C 39.058594 33.183594 37.605469 34.925781 36.597656 36.164062 C 35.515625 37.484375 33.828125 39.800781 32.511719 41.75 C 32.179688 42.246094 31.84375 42.742188 31.507812 43.234375 C 31.203125 43.679688 30.90625 44.121094 30.609375 44.566406 C 30.414062 44.863281 30.035156 45.410156 29.765625 45.789062 C 29.496094 46.171875 29.277344 46.496094 29.277344 46.519531 C 29.277344 46.550781 28.871094 47.15625 28.292969 47.988281 C 28.207031 48.113281 27.792969 48.730469 27.367188 49.367188 C 26.578125 50.554688 26.078125 51.28125 24.519531 53.484375 C 23.195312 55.351562 23.109375 55.472656 22.351562 56.453125 C 17.78125 62.359375 16.402344 63.726562 14.394531 64.335938 C 13.285156 64.667969 13.015625 64.664062 12.121094 64.300781 C 11.09375 63.878906 10.640625 63.777344 10.152344 63.847656 C 8.839844 64.046875 8.382812 66.015625 9.425781 66.988281 C 9.730469 67.269531 10.746094 67.542969 11.503906 67.542969 C 14.304688 67.542969 17.511719 65.605469 20.285156 62.234375 C 21.183594 61.140625 22.460938 59.410156 23.640625 57.675781 C 23.957031 57.210938 24.605469 56.3125 25.082031 55.675781 C 25.554688 55.042969 26.257812 54.078125 26.636719 53.535156 C 27.015625 52.992188 27.453125 52.410156 27.609375 52.246094 L 27.894531 51.941406 L 32.523438 51.945312 C 36.730469 51.953125 37.15625 51.964844 37.242188 52.097656 C 37.421875 52.382812 36.367188 58.195312 35.886719 59.585938 C 35.511719 60.667969 35.351562 61.105469 35.203125 61.441406 C 34.992188 61.941406 35.082031 61.988281 36.066406 61.859375 C 37.566406 61.667969 39.289062 61.640625 40.59375 61.796875 C 42.496094 62.019531 44.523438 62.152344 44.984375 62.082031 C 45.523438 62.003906 45.890625 61.632812 46.035156 61.027344 C 46.179688 60.433594 46.101562 60.371094 45.375 60.503906 C 44.460938 60.671875 42.675781 60.636719 41.632812 60.429688 C 40.226562 60.148438 40.1875 60.058594 40.464844 57.785156 C 40.539062 57.164062 40.679688 56.15625 40.773438 55.542969 C 40.863281 54.933594 40.964844 54.191406 40.992188 53.898438 C 41.023438 53.605469 41.101562 52.964844 41.171875 52.476562 C 41.242188 51.988281 41.382812 51.007812 41.480469 50.300781 C 41.582031 49.589844 41.703125 48.75 41.75 48.433594 C 41.796875 48.117188 41.898438 47.4375 41.972656 46.921875 C 42.050781 46.410156 42.171875 45.589844 42.246094 45.101562 C 42.492188 43.488281 42.65625 42.355469 42.738281 41.679688 C 42.785156 41.3125 42.882812 40.652344 42.957031 40.214844 L 43.226562 38.613281 C 43.304688 38.175781 43.421875 37.359375 43.496094 36.800781 C 43.570312 36.246094 43.644531 35.765625 43.664062 35.734375 C 43.683594 35.703125 43.742188 35.335938 43.800781 34.921875 C 43.855469 34.507812 43.953125 33.851562 44.023438 33.460938 C 44.09375 33.070312 44.234375 32.25 44.339844 31.636719 C 44.445312 31.027344 44.671875 30.066406 44.839844 29.503906 C 45.292969 28.011719 45.285156 28.082031 45.039062 28.089844 C 44.921875 28.089844 44.675781 28.191406 44.496094 28.308594 M 39.578125 35.03125 C 39.09375 35.621094 38.128906 36.894531 37.589844 37.65625 C 37.285156 38.085938 36.617188 39.015625 36.101562 39.726562 C 34.699219 41.65625 34.730469 41.609375 33.597656 43.28125 C 33.015625 44.136719 32.34375 45.113281 32.101562 45.457031 C 31.863281 45.800781 31.445312 46.417969 31.175781 46.835938 C 30.902344 47.25 30.34375 48.035156 29.933594 48.582031 C 29.191406 49.5625 29.058594 49.875 29.328125 49.980469 C 29.40625 50.007812 31.269531 50.035156 33.46875 50.035156 L 37.472656 50.035156 L 37.601562 49.832031 C 37.671875 49.722656 37.792969 49.09375 37.875 48.433594 C 37.953125 47.773438 38.113281 46.695312 38.230469 46.035156 C 38.351562 45.375 38.53125 44.273438 38.632812 43.589844 C 39.164062 40.058594 39.609375 37.480469 39.898438 36.21875 C 40.234375 34.765625 40.230469 34.796875 40.003906 34.765625 C 39.878906 34.75 39.738281 34.835938 39.578125 35.03125 " fill-opacity="1" fill-rule="evenodd"/></svg>